<mxfile host="app.diagrams.net" modified="2023-06-14T12:11:48.879Z" agent="Mozilla/5.0 (Windows NT 10.0; Win64; x64; rv:109.0) Gecko/20100101 Firefox/113.0" etag="aofufxtMAs5gAYE-fwwk" version="21.3.7">
  <diagram name="Page-1" id="VWZOmbCUqqnyxxBHgmqg">
    <mxGraphModel dx="1329" dy="548" grid="0" gridSize="10" guides="1" tooltips="1" connect="1" arrows="1" fold="1" page="1" pageScale="1" pageWidth="850" pageHeight="1100" background="#ffffff" math="1" shadow="0">
      <root>
        <mxCell id="0" />
        <mxCell id="1" parent="0" />
        <mxCell id="EZOEg4c-I0lGizl6Zp-z-6" value="" style="rounded=1;whiteSpace=wrap;html=1;fillColor=#60a917;fontColor=#ffffff;strokeColor=#2D7600;" vertex="1" parent="1">
          <mxGeometry x="80" y="120" width="100" height="40" as="geometry" />
        </mxCell>
        <mxCell id="EZOEg4c-I0lGizl6Zp-z-8" value="" style="rounded=1;whiteSpace=wrap;html=1;fillColor=#a20025;fontColor=#ffffff;strokeColor=#6F0000;" vertex="1" parent="1">
          <mxGeometry x="80" y="170" width="100" height="40" as="geometry" />
        </mxCell>
        <mxCell id="EZOEg4c-I0lGizl6Zp-z-9" value="" style="rounded=1;whiteSpace=wrap;html=1;fillColor=#1ba1e2;fontColor=#ffffff;strokeColor=#006EAF;" vertex="1" parent="1">
          <mxGeometry x="80" y="220" width="100" height="40" as="geometry" />
        </mxCell>
        <mxCell id="EZOEg4c-I0lGizl6Zp-z-11" value="" style="endArrow=none;dashed=1;html=1;dashPattern=1 3;strokeWidth=3;rounded=0;strokeColor=#000000;" edge="1" parent="1">
          <mxGeometry width="50" height="50" relative="1" as="geometry">
            <mxPoint x="130" y="330" as="sourcePoint" />
            <mxPoint x="130" y="270" as="targetPoint" />
          </mxGeometry>
        </mxCell>
        <mxCell id="EZOEg4c-I0lGizl6Zp-z-12" value="" style="rounded=1;whiteSpace=wrap;html=1;fillColor=#fa6800;fontColor=#000000;strokeColor=#C73500;" vertex="1" parent="1">
          <mxGeometry x="80" y="340" width="100" height="40" as="geometry" />
        </mxCell>
        <mxCell id="EZOEg4c-I0lGizl6Zp-z-13" value="" style="strokeWidth=2;html=1;shape=mxgraph.flowchart.annotation_2;align=left;labelPosition=right;pointerEvents=1;fillColor=#000000;strokeColor=#000000;" vertex="1" parent="1">
          <mxGeometry y="130" width="60" height="240" as="geometry" />
        </mxCell>
        <mxCell id="EZOEg4c-I0lGizl6Zp-z-14" value="$$N=50 \ \textrm{random}$$&amp;nbsp; $$\textrm{ensembles of size} \&amp;nbsp; k$$" style="text;html=1;strokeColor=none;fillColor=none;align=center;verticalAlign=middle;whiteSpace=wrap;rounded=0;fontColor=#000000;fontSize=16;spacing=-2;" vertex="1" parent="1">
          <mxGeometry x="-240" y="200" width="310" height="100" as="geometry" />
        </mxCell>
        <mxCell id="EZOEg4c-I0lGizl6Zp-z-15" value="&lt;div style=&quot;font-size: 16px;&quot;&gt;&lt;font style=&quot;font-size: 16px;&quot; color=&quot;#000000&quot;&gt;$$\textrm{Ens}_1$$&lt;/font&gt;&lt;/div&gt;" style="text;html=1;strokeColor=none;fillColor=none;align=center;verticalAlign=middle;whiteSpace=wrap;rounded=0;fontSize=16;" vertex="1" parent="1">
          <mxGeometry x="100" y="125" width="60" height="30" as="geometry" />
        </mxCell>
        <mxCell id="EZOEg4c-I0lGizl6Zp-z-16" value="&lt;div style=&quot;font-size: 16px;&quot;&gt;&lt;font style=&quot;font-size: 16px;&quot; color=&quot;#000000&quot;&gt;$$\textrm{Ens}_2$$&lt;/font&gt;&lt;/div&gt;" style="text;html=1;strokeColor=none;fillColor=none;align=center;verticalAlign=middle;whiteSpace=wrap;rounded=0;fontSize=16;" vertex="1" parent="1">
          <mxGeometry x="100" y="175" width="60" height="30" as="geometry" />
        </mxCell>
        <mxCell id="EZOEg4c-I0lGizl6Zp-z-17" value="&lt;div style=&quot;font-size: 16px;&quot;&gt;&lt;font style=&quot;font-size: 16px;&quot; color=&quot;#000000&quot;&gt;$$\textrm{Ens}_3$$&lt;/font&gt;&lt;/div&gt;" style="text;html=1;strokeColor=none;fillColor=none;align=center;verticalAlign=middle;whiteSpace=wrap;rounded=0;fontSize=16;" vertex="1" parent="1">
          <mxGeometry x="100" y="225" width="60" height="30" as="geometry" />
        </mxCell>
        <mxCell id="EZOEg4c-I0lGizl6Zp-z-18" value="&lt;div style=&quot;font-size: 16px;&quot;&gt;&lt;font style=&quot;font-size: 16px;&quot; color=&quot;#000000&quot;&gt;$$\textrm{Ens}_N$$&lt;/font&gt;&lt;/div&gt;" style="text;html=1;strokeColor=none;fillColor=none;align=center;verticalAlign=middle;whiteSpace=wrap;rounded=0;fontSize=16;" vertex="1" parent="1">
          <mxGeometry x="100" y="345" width="60" height="30" as="geometry" />
        </mxCell>
        <mxCell id="EZOEg4c-I0lGizl6Zp-z-19" value="" style="endArrow=classic;html=1;rounded=0;fontColor=#000000;strokeColor=#000000;" edge="1" parent="1">
          <mxGeometry width="50" height="50" relative="1" as="geometry">
            <mxPoint x="200" y="140" as="sourcePoint" />
            <mxPoint x="360" y="140" as="targetPoint" />
          </mxGeometry>
        </mxCell>
        <mxCell id="EZOEg4c-I0lGizl6Zp-z-20" value="" style="endArrow=classic;html=1;rounded=0;fontColor=#000000;strokeColor=#000000;" edge="1" parent="1">
          <mxGeometry width="50" height="50" relative="1" as="geometry">
            <mxPoint x="200" y="189.5" as="sourcePoint" />
            <mxPoint x="360" y="190" as="targetPoint" />
          </mxGeometry>
        </mxCell>
        <mxCell id="EZOEg4c-I0lGizl6Zp-z-21" value="" style="endArrow=classic;html=1;rounded=0;fontColor=#000000;strokeColor=#000000;" edge="1" parent="1">
          <mxGeometry width="50" height="50" relative="1" as="geometry">
            <mxPoint x="200" y="239.5" as="sourcePoint" />
            <mxPoint x="360" y="240" as="targetPoint" />
          </mxGeometry>
        </mxCell>
        <mxCell id="EZOEg4c-I0lGizl6Zp-z-22" value="" style="endArrow=classic;html=1;rounded=0;fontColor=#000000;strokeColor=#000000;" edge="1" parent="1">
          <mxGeometry width="50" height="50" relative="1" as="geometry">
            <mxPoint x="200" y="359.5" as="sourcePoint" />
            <mxPoint x="360" y="360" as="targetPoint" />
          </mxGeometry>
        </mxCell>
        <mxCell id="EZOEg4c-I0lGizl6Zp-z-23" value="" style="rounded=1;whiteSpace=wrap;html=1;fillColor=#60a917;fontColor=#ffffff;strokeColor=#2D7600;" vertex="1" parent="1">
          <mxGeometry x="390" y="120" width="100" height="40" as="geometry" />
        </mxCell>
        <mxCell id="EZOEg4c-I0lGizl6Zp-z-24" value="&lt;div style=&quot;font-size: 16px;&quot;&gt;&lt;font style=&quot;font-size: 16px;&quot; color=&quot;#000000&quot;&gt;$$\textrm{relWIS}_1$$&lt;/font&gt;&lt;/div&gt;" style="text;html=1;strokeColor=none;fillColor=none;align=center;verticalAlign=middle;whiteSpace=wrap;rounded=0;fontSize=16;" vertex="1" parent="1">
          <mxGeometry x="410" y="125" width="60" height="30" as="geometry" />
        </mxCell>
        <mxCell id="EZOEg4c-I0lGizl6Zp-z-25" value="" style="rounded=1;whiteSpace=wrap;html=1;fillColor=#a20025;fontColor=#ffffff;strokeColor=#6F0000;" vertex="1" parent="1">
          <mxGeometry x="390" y="170" width="100" height="40" as="geometry" />
        </mxCell>
        <mxCell id="EZOEg4c-I0lGizl6Zp-z-26" value="&lt;div style=&quot;font-size: 16px;&quot;&gt;&lt;font style=&quot;font-size: 16px;&quot; color=&quot;#000000&quot;&gt;$$\textrm{relWIS}_2$$&lt;/font&gt;&lt;/div&gt;" style="text;html=1;strokeColor=none;fillColor=none;align=center;verticalAlign=middle;whiteSpace=wrap;rounded=0;fontSize=16;" vertex="1" parent="1">
          <mxGeometry x="410" y="175" width="60" height="30" as="geometry" />
        </mxCell>
        <mxCell id="EZOEg4c-I0lGizl6Zp-z-27" value="" style="rounded=1;whiteSpace=wrap;html=1;fillColor=#1ba1e2;fontColor=#ffffff;strokeColor=#006EAF;" vertex="1" parent="1">
          <mxGeometry x="390" y="220" width="100" height="40" as="geometry" />
        </mxCell>
        <mxCell id="EZOEg4c-I0lGizl6Zp-z-28" value="&lt;div style=&quot;font-size: 16px;&quot;&gt;&lt;font style=&quot;font-size: 16px;&quot; color=&quot;#000000&quot;&gt;$$\textrm{relWIS}_3$$&lt;/font&gt;&lt;/div&gt;" style="text;html=1;strokeColor=none;fillColor=none;align=center;verticalAlign=middle;whiteSpace=wrap;rounded=0;fontSize=16;" vertex="1" parent="1">
          <mxGeometry x="410" y="225" width="60" height="30" as="geometry" />
        </mxCell>
        <mxCell id="EZOEg4c-I0lGizl6Zp-z-29" value="" style="rounded=1;whiteSpace=wrap;html=1;fillColor=#fa6800;fontColor=#000000;strokeColor=#C73500;" vertex="1" parent="1">
          <mxGeometry x="390" y="340" width="100" height="40" as="geometry" />
        </mxCell>
        <mxCell id="EZOEg4c-I0lGizl6Zp-z-30" value="&lt;div style=&quot;font-size: 16px;&quot;&gt;&lt;font style=&quot;font-size: 16px;&quot; color=&quot;#000000&quot;&gt;$$\textrm{relWIS}_4$$&lt;/font&gt;&lt;/div&gt;" style="text;html=1;strokeColor=none;fillColor=none;align=center;verticalAlign=middle;whiteSpace=wrap;rounded=0;fontSize=16;" vertex="1" parent="1">
          <mxGeometry x="410" y="345" width="60" height="30" as="geometry" />
        </mxCell>
        <mxCell id="EZOEg4c-I0lGizl6Zp-z-33" value="" style="strokeWidth=2;html=1;shape=mxgraph.flowchart.annotation_2;align=left;labelPosition=right;pointerEvents=1;direction=west;strokeColor=#000000;" vertex="1" parent="1">
          <mxGeometry x="540" y="120" width="50" height="250" as="geometry" />
        </mxCell>
        <mxCell id="EZOEg4c-I0lGizl6Zp-z-35" value="" style="rounded=1;whiteSpace=wrap;html=1;fillColor=#0050ef;fontColor=#ffffff;strokeColor=#001DBC;" vertex="1" parent="1">
          <mxGeometry x="220" y="75" width="120" height="50" as="geometry" />
        </mxCell>
        <mxCell id="EZOEg4c-I0lGizl6Zp-z-36" value="&lt;div style=&quot;font-size: 16px;&quot;&gt;&lt;font style=&quot;font-size: 16px;&quot;&gt;$$\textrm{HubEns}$$&lt;/font&gt;&lt;/div&gt;" style="text;html=1;strokeColor=none;fillColor=none;align=center;verticalAlign=middle;whiteSpace=wrap;rounded=0;fontSize=16;fontColor=#000000;" vertex="1" parent="1">
          <mxGeometry x="250" y="85" width="60" height="30" as="geometry" />
        </mxCell>
        <mxCell id="EZOEg4c-I0lGizl6Zp-z-37" value="$$\textrm{Divide each by performance of}$$" style="text;html=1;strokeColor=none;fillColor=none;align=center;verticalAlign=middle;whiteSpace=wrap;rounded=0;fontColor=#000000;" vertex="1" parent="1">
          <mxGeometry x="110" y="40" width="340" height="30" as="geometry" />
        </mxCell>
        <mxCell id="EZOEg4c-I0lGizl6Zp-z-43" value="" style="endArrow=none;html=1;rounded=0;strokeColor=#020202;strokeWidth=3;" edge="1" parent="1">
          <mxGeometry width="50" height="50" relative="1" as="geometry">
            <mxPoint x="-200" y="460" as="sourcePoint" />
            <mxPoint x="-200" y="20" as="targetPoint" />
          </mxGeometry>
        </mxCell>
        <mxCell id="EZOEg4c-I0lGizl6Zp-z-44" value="" style="endArrow=none;html=1;rounded=0;strokeColor=#020202;strokeWidth=3;" edge="1" parent="1">
          <mxGeometry width="50" height="50" relative="1" as="geometry">
            <mxPoint x="720" y="20" as="sourcePoint" />
            <mxPoint x="-200" y="20" as="targetPoint" />
          </mxGeometry>
        </mxCell>
        <mxCell id="EZOEg4c-I0lGizl6Zp-z-45" value="" style="endArrow=none;html=1;rounded=0;strokeColor=#020202;strokeWidth=3;" edge="1" parent="1">
          <mxGeometry width="50" height="50" relative="1" as="geometry">
            <mxPoint x="720" y="20" as="sourcePoint" />
            <mxPoint x="720" y="460" as="targetPoint" />
          </mxGeometry>
        </mxCell>
        <mxCell id="EZOEg4c-I0lGizl6Zp-z-46" value="" style="endArrow=none;html=1;rounded=0;strokeColor=#020202;strokeWidth=3;" edge="1" parent="1">
          <mxGeometry width="50" height="50" relative="1" as="geometry">
            <mxPoint x="-200" y="460" as="sourcePoint" />
            <mxPoint x="720" y="460" as="targetPoint" />
          </mxGeometry>
        </mxCell>
        <mxCell id="EZOEg4c-I0lGizl6Zp-z-48" value="" style="endArrow=none;html=1;rounded=0;strokeColor=#020202;strokeWidth=3;" edge="1" parent="1">
          <mxGeometry width="50" height="50" relative="1" as="geometry">
            <mxPoint x="-40" y="120" as="sourcePoint" />
            <mxPoint x="-40" y="20" as="targetPoint" />
          </mxGeometry>
        </mxCell>
        <mxCell id="EZOEg4c-I0lGizl6Zp-z-49" value="" style="endArrow=none;html=1;rounded=0;strokeColor=#020202;strokeWidth=3;" edge="1" parent="1">
          <mxGeometry width="50" height="50" relative="1" as="geometry">
            <mxPoint x="-40" y="120" as="sourcePoint" />
            <mxPoint x="-200" y="120" as="targetPoint" />
          </mxGeometry>
        </mxCell>
        <mxCell id="EZOEg4c-I0lGizl6Zp-z-50" value="&lt;div&gt;&lt;font style=&quot;font-size: 18px;&quot; color=&quot;#000000&quot;&gt;$$ \textrm{randomly sample}$$ &lt;/font&gt;&lt;/div&gt;&lt;div&gt;&lt;font style=&quot;font-size: 18px;&quot; color=&quot;#000000&quot;&gt;$$ \textrm{at each}$$ $$\textrm{time point} \ t$$&lt;/font&gt;&lt;/div&gt;" style="text;html=1;strokeColor=none;fillColor=none;align=center;verticalAlign=middle;whiteSpace=wrap;rounded=0;fontSize=18;" vertex="1" parent="1">
          <mxGeometry x="-180" y="40" width="120" height="60" as="geometry" />
        </mxCell>
        <mxCell id="EZOEg4c-I0lGizl6Zp-z-51" value="$$\textrm{sample of relative}$$" style="text;html=1;strokeColor=none;fillColor=none;align=center;verticalAlign=middle;whiteSpace=wrap;rounded=0;fontColor=#000000;" vertex="1" parent="1">
          <mxGeometry x="580" y="202" width="140" height="60" as="geometry" />
        </mxCell>
        <mxCell id="EZOEg4c-I0lGizl6Zp-z-52" value="$$\textrm{performance at single}$$" style="text;html=1;strokeColor=none;fillColor=none;align=center;verticalAlign=middle;whiteSpace=wrap;rounded=0;fontColor=#000000;" vertex="1" parent="1">
          <mxGeometry x="580" y="225" width="140" height="60" as="geometry" />
        </mxCell>
        <mxCell id="EZOEg4c-I0lGizl6Zp-z-54" value="&lt;div&gt;$$\textrm{could maybe pool}$$&lt;/div&gt;" style="text;html=1;strokeColor=none;fillColor=none;align=center;verticalAlign=middle;whiteSpace=wrap;rounded=0;fontColor=#000000;" vertex="1" parent="1">
          <mxGeometry x="572" y="294" width="140" height="60" as="geometry" />
        </mxCell>
        <mxCell id="EZOEg4c-I0lGizl6Zp-z-55" value="$$\textrm{across multiple} \ t,$$" style="text;html=1;strokeColor=none;fillColor=none;align=center;verticalAlign=middle;whiteSpace=wrap;rounded=0;fontColor=#000000;" vertex="1" parent="1">
          <mxGeometry x="572" y="313" width="140" height="60" as="geometry" />
        </mxCell>
        <mxCell id="EZOEg4c-I0lGizl6Zp-z-56" value="$$\textrm{given ~constant}$$" style="text;html=1;strokeColor=none;fillColor=none;align=center;verticalAlign=middle;whiteSpace=wrap;rounded=0;fontColor=#000000;" vertex="1" parent="1">
          <mxGeometry x="572" y="330" width="140" height="60" as="geometry" />
        </mxCell>
        <mxCell id="EZOEg4c-I0lGizl6Zp-z-57" value="&amp;nbsp; $$\textrm{HubEns size}$$" style="text;html=1;strokeColor=none;fillColor=none;align=center;verticalAlign=middle;whiteSpace=wrap;rounded=0;fontColor=#000000;" vertex="1" parent="1">
          <mxGeometry x="567" y="343" width="140" height="60" as="geometry" />
        </mxCell>
        <mxCell id="EZOEg4c-I0lGizl6Zp-z-58" value="$$t $$" style="text;html=1;strokeColor=none;fillColor=none;align=center;verticalAlign=middle;whiteSpace=wrap;rounded=0;fontColor=#000000;" vertex="1" parent="1">
          <mxGeometry x="85" y="80" width="90" height="35" as="geometry" />
        </mxCell>
        <mxCell id="EZOEg4c-I0lGizl6Zp-z-101" value="" style="rounded=1;whiteSpace=wrap;html=1;fillColor=#60a917;fontColor=#ffffff;strokeColor=#2D7600;" vertex="1" parent="1">
          <mxGeometry x="80" y="610" width="50" height="40" as="geometry" />
        </mxCell>
        <mxCell id="EZOEg4c-I0lGizl6Zp-z-102" value="" style="rounded=1;whiteSpace=wrap;html=1;fillColor=#a20025;fontColor=#ffffff;strokeColor=#6F0000;" vertex="1" parent="1">
          <mxGeometry x="80" y="660" width="50" height="40" as="geometry" />
        </mxCell>
        <mxCell id="EZOEg4c-I0lGizl6Zp-z-103" value="" style="rounded=1;whiteSpace=wrap;html=1;fillColor=#1ba1e2;fontColor=#ffffff;strokeColor=#006EAF;" vertex="1" parent="1">
          <mxGeometry x="80" y="710" width="50" height="40" as="geometry" />
        </mxCell>
        <mxCell id="EZOEg4c-I0lGizl6Zp-z-104" value="" style="endArrow=none;dashed=1;html=1;dashPattern=1 3;strokeWidth=3;rounded=0;strokeColor=#000000;" edge="1" parent="1">
          <mxGeometry width="50" height="50" relative="1" as="geometry">
            <mxPoint x="110" y="820" as="sourcePoint" />
            <mxPoint x="110" y="760" as="targetPoint" />
          </mxGeometry>
        </mxCell>
        <mxCell id="EZOEg4c-I0lGizl6Zp-z-105" value="" style="rounded=1;whiteSpace=wrap;html=1;fillColor=#fa6800;fontColor=#000000;strokeColor=#C73500;" vertex="1" parent="1">
          <mxGeometry x="80" y="830" width="50" height="40" as="geometry" />
        </mxCell>
        <mxCell id="EZOEg4c-I0lGizl6Zp-z-106" value="" style="strokeWidth=2;html=1;shape=mxgraph.flowchart.annotation_2;align=left;labelPosition=right;pointerEvents=1;fillColor=#000000;strokeColor=#000000;" vertex="1" parent="1">
          <mxGeometry y="620" width="60" height="240" as="geometry" />
        </mxCell>
        <mxCell id="EZOEg4c-I0lGizl6Zp-z-107" value="$$N=50 \ \textrm{random}$$&amp;nbsp; $$\textrm{ensembles of size} \&amp;nbsp; k$$" style="text;html=1;strokeColor=none;fillColor=none;align=center;verticalAlign=middle;whiteSpace=wrap;rounded=0;fontColor=#000000;fontSize=16;spacing=-2;" vertex="1" parent="1">
          <mxGeometry x="-240" y="690" width="310" height="100" as="geometry" />
        </mxCell>
        <mxCell id="EZOEg4c-I0lGizl6Zp-z-108" value="&lt;div style=&quot;font-size: 16px;&quot;&gt;&lt;font style=&quot;font-size: 16px;&quot; color=&quot;#000000&quot;&gt;$$\textrm{Ens}_1$$&lt;/font&gt;&lt;/div&gt;" style="text;html=1;strokeColor=none;fillColor=none;align=center;verticalAlign=middle;whiteSpace=wrap;rounded=0;fontSize=16;" vertex="1" parent="1">
          <mxGeometry x="75" y="615" width="60" height="30" as="geometry" />
        </mxCell>
        <mxCell id="EZOEg4c-I0lGizl6Zp-z-109" value="&lt;div style=&quot;font-size: 16px;&quot;&gt;&lt;font style=&quot;font-size: 16px;&quot; color=&quot;#000000&quot;&gt;$$\textrm{Ens}_2$$&lt;/font&gt;&lt;/div&gt;" style="text;html=1;strokeColor=none;fillColor=none;align=center;verticalAlign=middle;whiteSpace=wrap;rounded=0;fontSize=16;" vertex="1" parent="1">
          <mxGeometry x="80" y="665" width="50" height="30" as="geometry" />
        </mxCell>
        <mxCell id="EZOEg4c-I0lGizl6Zp-z-110" value="&lt;div style=&quot;font-size: 16px;&quot;&gt;&lt;font style=&quot;font-size: 16px;&quot; color=&quot;#000000&quot;&gt;$$\textrm{Ens}_3$$&lt;/font&gt;&lt;/div&gt;" style="text;html=1;strokeColor=none;fillColor=none;align=center;verticalAlign=middle;whiteSpace=wrap;rounded=0;fontSize=16;" vertex="1" parent="1">
          <mxGeometry x="75" y="715" width="60" height="30" as="geometry" />
        </mxCell>
        <mxCell id="EZOEg4c-I0lGizl6Zp-z-111" value="&lt;div style=&quot;font-size: 16px;&quot;&gt;&lt;font style=&quot;font-size: 16px;&quot; color=&quot;#000000&quot;&gt;$$\textrm{Ens}_N$$&lt;/font&gt;&lt;/div&gt;" style="text;html=1;strokeColor=none;fillColor=none;align=center;verticalAlign=middle;whiteSpace=wrap;rounded=0;fontSize=16;" vertex="1" parent="1">
          <mxGeometry x="100" y="835" width="10" height="30" as="geometry" />
        </mxCell>
        <mxCell id="EZOEg4c-I0lGizl6Zp-z-112" value="" style="endArrow=classic;html=1;rounded=0;fontColor=#000000;strokeColor=#000000;" edge="1" parent="1">
          <mxGeometry width="50" height="50" relative="1" as="geometry">
            <mxPoint x="350" y="630" as="sourcePoint" />
            <mxPoint x="510" y="630" as="targetPoint" />
          </mxGeometry>
        </mxCell>
        <mxCell id="EZOEg4c-I0lGizl6Zp-z-113" value="" style="endArrow=classic;html=1;rounded=0;fontColor=#000000;strokeColor=#000000;" edge="1" parent="1">
          <mxGeometry width="50" height="50" relative="1" as="geometry">
            <mxPoint x="350" y="679.5" as="sourcePoint" />
            <mxPoint x="510" y="680" as="targetPoint" />
          </mxGeometry>
        </mxCell>
        <mxCell id="EZOEg4c-I0lGizl6Zp-z-114" value="" style="endArrow=classic;html=1;rounded=0;fontColor=#000000;strokeColor=#000000;" edge="1" parent="1">
          <mxGeometry width="50" height="50" relative="1" as="geometry">
            <mxPoint x="350" y="729.5" as="sourcePoint" />
            <mxPoint x="510" y="730" as="targetPoint" />
          </mxGeometry>
        </mxCell>
        <mxCell id="EZOEg4c-I0lGizl6Zp-z-115" value="" style="endArrow=classic;html=1;rounded=0;fontColor=#000000;strokeColor=#000000;" edge="1" parent="1">
          <mxGeometry width="50" height="50" relative="1" as="geometry">
            <mxPoint x="350" y="849.5" as="sourcePoint" />
            <mxPoint x="510" y="850" as="targetPoint" />
          </mxGeometry>
        </mxCell>
        <mxCell id="EZOEg4c-I0lGizl6Zp-z-116" value="" style="rounded=1;whiteSpace=wrap;html=1;fillColor=#60a917;fontColor=#ffffff;strokeColor=#2D7600;" vertex="1" parent="1">
          <mxGeometry x="540" y="610" width="100" height="40" as="geometry" />
        </mxCell>
        <mxCell id="EZOEg4c-I0lGizl6Zp-z-117" value="&lt;div style=&quot;font-size: 16px;&quot;&gt;&lt;font style=&quot;font-size: 16px;&quot; color=&quot;#000000&quot;&gt;$$\textrm{relWIS}_1$$&lt;/font&gt;&lt;/div&gt;" style="text;html=1;strokeColor=none;fillColor=none;align=center;verticalAlign=middle;whiteSpace=wrap;rounded=0;fontSize=16;" vertex="1" parent="1">
          <mxGeometry x="560" y="615" width="60" height="30" as="geometry" />
        </mxCell>
        <mxCell id="EZOEg4c-I0lGizl6Zp-z-118" value="" style="rounded=1;whiteSpace=wrap;html=1;fillColor=#a20025;fontColor=#ffffff;strokeColor=#6F0000;" vertex="1" parent="1">
          <mxGeometry x="540" y="660" width="100" height="40" as="geometry" />
        </mxCell>
        <mxCell id="EZOEg4c-I0lGizl6Zp-z-119" value="&lt;div style=&quot;font-size: 16px;&quot;&gt;&lt;font style=&quot;font-size: 16px;&quot; color=&quot;#000000&quot;&gt;$$\textrm{relWIS}_2$$&lt;/font&gt;&lt;/div&gt;" style="text;html=1;strokeColor=none;fillColor=none;align=center;verticalAlign=middle;whiteSpace=wrap;rounded=0;fontSize=16;" vertex="1" parent="1">
          <mxGeometry x="560" y="665" width="60" height="30" as="geometry" />
        </mxCell>
        <mxCell id="EZOEg4c-I0lGizl6Zp-z-120" value="" style="rounded=1;whiteSpace=wrap;html=1;fillColor=#1ba1e2;fontColor=#ffffff;strokeColor=#006EAF;" vertex="1" parent="1">
          <mxGeometry x="540" y="710" width="100" height="40" as="geometry" />
        </mxCell>
        <mxCell id="EZOEg4c-I0lGizl6Zp-z-121" value="&lt;div style=&quot;font-size: 16px;&quot;&gt;&lt;font style=&quot;font-size: 16px;&quot; color=&quot;#000000&quot;&gt;$$\textrm{relWIS}_3$$&lt;/font&gt;&lt;/div&gt;" style="text;html=1;strokeColor=none;fillColor=none;align=center;verticalAlign=middle;whiteSpace=wrap;rounded=0;fontSize=16;" vertex="1" parent="1">
          <mxGeometry x="560" y="715" width="60" height="30" as="geometry" />
        </mxCell>
        <mxCell id="EZOEg4c-I0lGizl6Zp-z-122" value="" style="rounded=1;whiteSpace=wrap;html=1;fillColor=#fa6800;fontColor=#000000;strokeColor=#C73500;" vertex="1" parent="1">
          <mxGeometry x="540" y="830" width="100" height="40" as="geometry" />
        </mxCell>
        <mxCell id="EZOEg4c-I0lGizl6Zp-z-123" value="&lt;div style=&quot;font-size: 16px;&quot;&gt;&lt;font style=&quot;font-size: 16px;&quot; color=&quot;#000000&quot;&gt;$$\textrm{relWIS}_4$$&lt;/font&gt;&lt;/div&gt;" style="text;html=1;strokeColor=none;fillColor=none;align=center;verticalAlign=middle;whiteSpace=wrap;rounded=0;fontSize=16;" vertex="1" parent="1">
          <mxGeometry x="560" y="835" width="60" height="30" as="geometry" />
        </mxCell>
        <mxCell id="EZOEg4c-I0lGizl6Zp-z-124" value="" style="strokeWidth=2;html=1;shape=mxgraph.flowchart.annotation_2;align=left;labelPosition=right;pointerEvents=1;direction=west;strokeColor=#000000;" vertex="1" parent="1">
          <mxGeometry x="690" y="610" width="50" height="250" as="geometry" />
        </mxCell>
        <mxCell id="EZOEg4c-I0lGizl6Zp-z-126" value="&lt;div style=&quot;font-size: 16px;&quot;&gt;&lt;font style=&quot;font-size: 16px;&quot;&gt;$$\textrm{HubEns}$$&lt;/font&gt;&lt;/div&gt;" style="text;html=1;strokeColor=none;fillColor=none;align=center;verticalAlign=middle;whiteSpace=wrap;rounded=0;fontSize=16;fontColor=#ffffff;" vertex="1" parent="1">
          <mxGeometry x="400" y="575" width="60" height="30" as="geometry" />
        </mxCell>
        <mxCell id="EZOEg4c-I0lGizl6Zp-z-127" value="&lt;div&gt;$$\textrm{Divide each by performance of}$$&lt;/div&gt;&lt;div&gt;$$\textrm{(over entire time period)}$$&lt;/div&gt;" style="text;html=1;strokeColor=none;fillColor=none;align=center;verticalAlign=middle;whiteSpace=wrap;rounded=0;fontColor=#000000;" vertex="1" parent="1">
          <mxGeometry x="255" y="520" width="340" height="30" as="geometry" />
        </mxCell>
        <mxCell id="EZOEg4c-I0lGizl6Zp-z-128" value="" style="whiteSpace=wrap;html=1;aspect=fixed;opacity=0;" vertex="1" parent="1">
          <mxGeometry x="380" y="560" width="180" height="180" as="geometry" />
        </mxCell>
        <mxCell id="EZOEg4c-I0lGizl6Zp-z-129" value="" style="endArrow=none;html=1;rounded=0;strokeColor=#020202;strokeWidth=3;" edge="1" parent="1">
          <mxGeometry width="50" height="50" relative="1" as="geometry">
            <mxPoint x="-200" y="950" as="sourcePoint" />
            <mxPoint x="-200" y="510" as="targetPoint" />
          </mxGeometry>
        </mxCell>
        <mxCell id="EZOEg4c-I0lGizl6Zp-z-130" value="" style="endArrow=none;html=1;rounded=0;strokeColor=#020202;strokeWidth=3;" edge="1" parent="1">
          <mxGeometry width="50" height="50" relative="1" as="geometry">
            <mxPoint x="930" y="510" as="sourcePoint" />
            <mxPoint x="-200" y="510" as="targetPoint" />
          </mxGeometry>
        </mxCell>
        <mxCell id="EZOEg4c-I0lGizl6Zp-z-131" value="" style="endArrow=none;html=1;rounded=0;strokeColor=#020202;strokeWidth=3;" edge="1" parent="1">
          <mxGeometry width="50" height="50" relative="1" as="geometry">
            <mxPoint x="930" y="510" as="sourcePoint" />
            <mxPoint x="930" y="950" as="targetPoint" />
          </mxGeometry>
        </mxCell>
        <mxCell id="EZOEg4c-I0lGizl6Zp-z-132" value="" style="endArrow=none;html=1;rounded=0;strokeColor=#020202;strokeWidth=3;" edge="1" parent="1">
          <mxGeometry width="50" height="50" relative="1" as="geometry">
            <mxPoint x="-200" y="950" as="sourcePoint" />
            <mxPoint x="930" y="950" as="targetPoint" />
          </mxGeometry>
        </mxCell>
        <mxCell id="EZOEg4c-I0lGizl6Zp-z-133" value="" style="endArrow=none;html=1;rounded=0;strokeColor=#020202;strokeWidth=3;" edge="1" parent="1">
          <mxGeometry width="50" height="50" relative="1" as="geometry">
            <mxPoint x="-40" y="610" as="sourcePoint" />
            <mxPoint x="-40" y="510" as="targetPoint" />
          </mxGeometry>
        </mxCell>
        <mxCell id="EZOEg4c-I0lGizl6Zp-z-134" value="" style="endArrow=none;html=1;rounded=0;strokeColor=#020202;strokeWidth=3;" edge="1" parent="1">
          <mxGeometry width="50" height="50" relative="1" as="geometry">
            <mxPoint x="-40" y="610" as="sourcePoint" />
            <mxPoint x="-200" y="610" as="targetPoint" />
          </mxGeometry>
        </mxCell>
        <mxCell id="EZOEg4c-I0lGizl6Zp-z-135" value="&lt;div&gt;&lt;font style=&quot;font-size: 18px;&quot; color=&quot;#000000&quot;&gt;$$ \textrm{fixed sets}$$ &lt;/font&gt;&lt;/div&gt;&lt;div&gt;&lt;font style=&quot;font-size: 18px;&quot; color=&quot;#000000&quot;&gt;$$ \textrm{over multiple}$$ $$\textrm{time points} \ t$$&lt;/font&gt;&lt;/div&gt;" style="text;html=1;strokeColor=none;fillColor=none;align=center;verticalAlign=middle;whiteSpace=wrap;rounded=0;fontSize=18;" vertex="1" parent="1">
          <mxGeometry x="-180" y="530" width="120" height="60" as="geometry" />
        </mxCell>
        <mxCell id="EZOEg4c-I0lGizl6Zp-z-136" value="$$\textrm{sample of relative}$$" style="text;html=1;strokeColor=none;fillColor=none;align=center;verticalAlign=middle;whiteSpace=wrap;rounded=0;fontColor=#000000;" vertex="1" parent="1">
          <mxGeometry x="758" y="677" width="140" height="60" as="geometry" />
        </mxCell>
        <mxCell id="EZOEg4c-I0lGizl6Zp-z-137" value="&lt;div&gt;$$\textrm{performance for fixed}$$&lt;/div&gt;" style="text;html=1;strokeColor=none;fillColor=none;align=center;verticalAlign=middle;whiteSpace=wrap;rounded=0;fontColor=#000000;" vertex="1" parent="1">
          <mxGeometry x="749" y="705" width="140" height="60" as="geometry" />
        </mxCell>
        <mxCell id="EZOEg4c-I0lGizl6Zp-z-140" value="&lt;div&gt;$$\textrm{occasionally be unavailable,}$$&lt;/div&gt;" style="text;html=1;strokeColor=none;fillColor=none;align=center;verticalAlign=middle;whiteSpace=wrap;rounded=0;fontColor=#000000;" vertex="1" parent="1">
          <mxGeometry x="750" y="837.5" width="140" height="60" as="geometry" />
        </mxCell>
        <mxCell id="EZOEg4c-I0lGizl6Zp-z-143" value="&lt;div&gt;$$t_1$$&lt;/div&gt;" style="text;html=1;strokeColor=none;fillColor=none;align=center;verticalAlign=middle;whiteSpace=wrap;rounded=0;fontColor=#000000;" vertex="1" parent="1">
          <mxGeometry x="60" y="575" width="90" height="35" as="geometry" />
        </mxCell>
        <mxCell id="EZOEg4c-I0lGizl6Zp-z-144" value="" style="rounded=1;whiteSpace=wrap;html=1;fillColor=#60a917;fontColor=#ffffff;strokeColor=#2D7600;" vertex="1" parent="1">
          <mxGeometry x="150" y="610" width="50" height="40" as="geometry" />
        </mxCell>
        <mxCell id="EZOEg4c-I0lGizl6Zp-z-145" value="" style="rounded=1;whiteSpace=wrap;html=1;fillColor=#a20025;fontColor=#ffffff;strokeColor=#6F0000;" vertex="1" parent="1">
          <mxGeometry x="150" y="660" width="50" height="40" as="geometry" />
        </mxCell>
        <mxCell id="EZOEg4c-I0lGizl6Zp-z-146" value="" style="rounded=1;whiteSpace=wrap;html=1;fillColor=#1ba1e2;fontColor=#ffffff;strokeColor=#006EAF;" vertex="1" parent="1">
          <mxGeometry x="150" y="710" width="50" height="40" as="geometry" />
        </mxCell>
        <mxCell id="EZOEg4c-I0lGizl6Zp-z-147" value="" style="endArrow=none;dashed=1;html=1;dashPattern=1 3;strokeWidth=3;rounded=0;strokeColor=#000000;" edge="1" parent="1">
          <mxGeometry width="50" height="50" relative="1" as="geometry">
            <mxPoint x="180" y="820" as="sourcePoint" />
            <mxPoint x="180" y="760" as="targetPoint" />
          </mxGeometry>
        </mxCell>
        <mxCell id="EZOEg4c-I0lGizl6Zp-z-148" value="" style="rounded=1;whiteSpace=wrap;html=1;fillColor=#fa6800;fontColor=#000000;strokeColor=#C73500;" vertex="1" parent="1">
          <mxGeometry x="150" y="830" width="50" height="40" as="geometry" />
        </mxCell>
        <mxCell id="EZOEg4c-I0lGizl6Zp-z-149" value="&lt;div style=&quot;font-size: 16px;&quot;&gt;&lt;font style=&quot;font-size: 16px;&quot; color=&quot;#000000&quot;&gt;$$\textrm{Ens}_1$$&lt;/font&gt;&lt;/div&gt;" style="text;html=1;strokeColor=none;fillColor=none;align=center;verticalAlign=middle;whiteSpace=wrap;rounded=0;fontSize=16;" vertex="1" parent="1">
          <mxGeometry x="145" y="615" width="60" height="30" as="geometry" />
        </mxCell>
        <mxCell id="EZOEg4c-I0lGizl6Zp-z-150" value="&lt;div style=&quot;font-size: 16px;&quot;&gt;&lt;font style=&quot;font-size: 16px;&quot; color=&quot;#000000&quot;&gt;$$\textrm{Ens}_2$$&lt;/font&gt;&lt;/div&gt;" style="text;html=1;strokeColor=none;fillColor=none;align=center;verticalAlign=middle;whiteSpace=wrap;rounded=0;fontSize=16;" vertex="1" parent="1">
          <mxGeometry x="150" y="665" width="50" height="30" as="geometry" />
        </mxCell>
        <mxCell id="EZOEg4c-I0lGizl6Zp-z-151" value="&lt;div style=&quot;font-size: 16px;&quot;&gt;&lt;font style=&quot;font-size: 16px;&quot; color=&quot;#000000&quot;&gt;$$\textrm{Ens}_3$$&lt;/font&gt;&lt;/div&gt;" style="text;html=1;strokeColor=none;fillColor=none;align=center;verticalAlign=middle;whiteSpace=wrap;rounded=0;fontSize=16;" vertex="1" parent="1">
          <mxGeometry x="145" y="715" width="60" height="30" as="geometry" />
        </mxCell>
        <mxCell id="EZOEg4c-I0lGizl6Zp-z-152" value="&lt;div style=&quot;font-size: 16px;&quot;&gt;&lt;font style=&quot;font-size: 16px;&quot; color=&quot;#000000&quot;&gt;$$\textrm{Ens}_N$$&lt;/font&gt;&lt;/div&gt;" style="text;html=1;strokeColor=none;fillColor=none;align=center;verticalAlign=middle;whiteSpace=wrap;rounded=0;fontSize=16;" vertex="1" parent="1">
          <mxGeometry x="170" y="835" width="10" height="30" as="geometry" />
        </mxCell>
        <mxCell id="EZOEg4c-I0lGizl6Zp-z-153" value="&lt;div&gt;$$t_2$$&lt;/div&gt;" style="text;html=1;strokeColor=none;fillColor=none;align=center;verticalAlign=middle;whiteSpace=wrap;rounded=0;fontColor=#000000;" vertex="1" parent="1">
          <mxGeometry x="130" y="575" width="90" height="35" as="geometry" />
        </mxCell>
        <mxCell id="EZOEg4c-I0lGizl6Zp-z-155" value="+" style="text;html=1;strokeColor=none;fillColor=none;align=center;verticalAlign=middle;whiteSpace=wrap;rounded=0;fontColor=#000000;fontSize=22;" vertex="1" parent="1">
          <mxGeometry x="125" y="615" width="30" height="30" as="geometry" />
        </mxCell>
        <mxCell id="EZOEg4c-I0lGizl6Zp-z-158" value="+" style="text;html=1;strokeColor=none;fillColor=none;align=center;verticalAlign=middle;whiteSpace=wrap;rounded=0;fontColor=#000000;fontSize=22;" vertex="1" parent="1">
          <mxGeometry x="125" y="665" width="30" height="30" as="geometry" />
        </mxCell>
        <mxCell id="EZOEg4c-I0lGizl6Zp-z-159" value="+" style="text;html=1;strokeColor=none;fillColor=none;align=center;verticalAlign=middle;whiteSpace=wrap;rounded=0;fontColor=#000000;fontSize=22;" vertex="1" parent="1">
          <mxGeometry x="125" y="715" width="30" height="30" as="geometry" />
        </mxCell>
        <mxCell id="EZOEg4c-I0lGizl6Zp-z-160" value="+" style="text;html=1;strokeColor=none;fillColor=none;align=center;verticalAlign=middle;whiteSpace=wrap;rounded=0;fontColor=#000000;fontSize=22;" vertex="1" parent="1">
          <mxGeometry x="125" y="835" width="30" height="30" as="geometry" />
        </mxCell>
        <mxCell id="EZOEg4c-I0lGizl6Zp-z-174" value="+" style="text;html=1;strokeColor=none;fillColor=none;align=center;verticalAlign=middle;whiteSpace=wrap;rounded=0;fontColor=#000000;fontSize=22;" vertex="1" parent="1">
          <mxGeometry x="200" y="615" width="30" height="30" as="geometry" />
        </mxCell>
        <mxCell id="EZOEg4c-I0lGizl6Zp-z-175" value="+" style="text;html=1;strokeColor=none;fillColor=none;align=center;verticalAlign=middle;whiteSpace=wrap;rounded=0;fontColor=#000000;fontSize=22;" vertex="1" parent="1">
          <mxGeometry x="200" y="665" width="30" height="30" as="geometry" />
        </mxCell>
        <mxCell id="EZOEg4c-I0lGizl6Zp-z-176" value="+" style="text;html=1;strokeColor=none;fillColor=none;align=center;verticalAlign=middle;whiteSpace=wrap;rounded=0;fontColor=#000000;fontSize=22;" vertex="1" parent="1">
          <mxGeometry x="200" y="715" width="30" height="30" as="geometry" />
        </mxCell>
        <mxCell id="EZOEg4c-I0lGizl6Zp-z-177" value="+" style="text;html=1;strokeColor=none;fillColor=none;align=center;verticalAlign=middle;whiteSpace=wrap;rounded=0;fontColor=#000000;fontSize=22;" vertex="1" parent="1">
          <mxGeometry x="200" y="835" width="30" height="30" as="geometry" />
        </mxCell>
        <mxCell id="EZOEg4c-I0lGizl6Zp-z-178" value="" style="endArrow=none;dashed=1;html=1;dashPattern=1 3;strokeWidth=2;rounded=0;strokeColor=#000000;exitX=1;exitY=0.5;exitDx=0;exitDy=0;" edge="1" parent="1" source="EZOEg4c-I0lGizl6Zp-z-174">
          <mxGeometry width="50" height="50" relative="1" as="geometry">
            <mxPoint x="670" y="580" as="sourcePoint" />
            <mxPoint x="260" y="630" as="targetPoint" />
          </mxGeometry>
        </mxCell>
        <mxCell id="EZOEg4c-I0lGizl6Zp-z-179" value="" style="rounded=1;whiteSpace=wrap;html=1;fillColor=#60a917;fontColor=#ffffff;strokeColor=#2D7600;" vertex="1" parent="1">
          <mxGeometry x="275" y="610" width="50" height="40" as="geometry" />
        </mxCell>
        <mxCell id="EZOEg4c-I0lGizl6Zp-z-180" value="" style="rounded=1;whiteSpace=wrap;html=1;fillColor=#a20025;fontColor=#ffffff;strokeColor=#6F0000;" vertex="1" parent="1">
          <mxGeometry x="275" y="660" width="50" height="40" as="geometry" />
        </mxCell>
        <mxCell id="EZOEg4c-I0lGizl6Zp-z-181" value="" style="rounded=1;whiteSpace=wrap;html=1;fillColor=#1ba1e2;fontColor=#ffffff;strokeColor=#006EAF;" vertex="1" parent="1">
          <mxGeometry x="275" y="710" width="50" height="40" as="geometry" />
        </mxCell>
        <mxCell id="EZOEg4c-I0lGizl6Zp-z-182" value="" style="endArrow=none;dashed=1;html=1;dashPattern=1 3;strokeWidth=3;rounded=0;strokeColor=#000000;" edge="1" parent="1">
          <mxGeometry width="50" height="50" relative="1" as="geometry">
            <mxPoint x="305" y="820" as="sourcePoint" />
            <mxPoint x="305" y="760" as="targetPoint" />
          </mxGeometry>
        </mxCell>
        <mxCell id="EZOEg4c-I0lGizl6Zp-z-183" value="" style="rounded=1;whiteSpace=wrap;html=1;fillColor=#fa6800;fontColor=#000000;strokeColor=#C73500;" vertex="1" parent="1">
          <mxGeometry x="275" y="830" width="50" height="40" as="geometry" />
        </mxCell>
        <mxCell id="EZOEg4c-I0lGizl6Zp-z-184" value="&lt;div style=&quot;font-size: 16px;&quot;&gt;&lt;font style=&quot;font-size: 16px;&quot; color=&quot;#000000&quot;&gt;$$\textrm{Ens}_1$$&lt;/font&gt;&lt;/div&gt;" style="text;html=1;strokeColor=none;fillColor=none;align=center;verticalAlign=middle;whiteSpace=wrap;rounded=0;fontSize=16;" vertex="1" parent="1">
          <mxGeometry x="270" y="615" width="60" height="30" as="geometry" />
        </mxCell>
        <mxCell id="EZOEg4c-I0lGizl6Zp-z-185" value="&lt;div style=&quot;font-size: 16px;&quot;&gt;&lt;font style=&quot;font-size: 16px;&quot; color=&quot;#000000&quot;&gt;$$\textrm{Ens}_2$$&lt;/font&gt;&lt;/div&gt;" style="text;html=1;strokeColor=none;fillColor=none;align=center;verticalAlign=middle;whiteSpace=wrap;rounded=0;fontSize=16;" vertex="1" parent="1">
          <mxGeometry x="275" y="665" width="50" height="30" as="geometry" />
        </mxCell>
        <mxCell id="EZOEg4c-I0lGizl6Zp-z-186" value="&lt;div style=&quot;font-size: 16px;&quot;&gt;&lt;font style=&quot;font-size: 16px;&quot; color=&quot;#000000&quot;&gt;$$\textrm{Ens}_3$$&lt;/font&gt;&lt;/div&gt;" style="text;html=1;strokeColor=none;fillColor=none;align=center;verticalAlign=middle;whiteSpace=wrap;rounded=0;fontSize=16;" vertex="1" parent="1">
          <mxGeometry x="270" y="715" width="60" height="30" as="geometry" />
        </mxCell>
        <mxCell id="EZOEg4c-I0lGizl6Zp-z-187" value="&lt;div style=&quot;font-size: 16px;&quot;&gt;&lt;font style=&quot;font-size: 16px;&quot; color=&quot;#000000&quot;&gt;$$\textrm{Ens}_N$$&lt;/font&gt;&lt;/div&gt;" style="text;html=1;strokeColor=none;fillColor=none;align=center;verticalAlign=middle;whiteSpace=wrap;rounded=0;fontSize=16;" vertex="1" parent="1">
          <mxGeometry x="295" y="835" width="10" height="30" as="geometry" />
        </mxCell>
        <mxCell id="EZOEg4c-I0lGizl6Zp-z-188" value="&lt;div&gt;$$t_T$$&lt;/div&gt;" style="text;html=1;strokeColor=none;fillColor=none;align=center;verticalAlign=middle;whiteSpace=wrap;rounded=0;fontColor=#000000;" vertex="1" parent="1">
          <mxGeometry x="255" y="575" width="90" height="35" as="geometry" />
        </mxCell>
        <mxCell id="EZOEg4c-I0lGizl6Zp-z-189" value="+" style="text;html=1;strokeColor=none;fillColor=none;align=center;verticalAlign=middle;whiteSpace=wrap;rounded=0;fontColor=#000000;fontSize=22;" vertex="1" parent="1">
          <mxGeometry x="250" y="615" width="30" height="30" as="geometry" />
        </mxCell>
        <mxCell id="EZOEg4c-I0lGizl6Zp-z-190" value="+" style="text;html=1;strokeColor=none;fillColor=none;align=center;verticalAlign=middle;whiteSpace=wrap;rounded=0;fontColor=#000000;fontSize=22;" vertex="1" parent="1">
          <mxGeometry x="250" y="665" width="30" height="30" as="geometry" />
        </mxCell>
        <mxCell id="EZOEg4c-I0lGizl6Zp-z-191" value="+" style="text;html=1;strokeColor=none;fillColor=none;align=center;verticalAlign=middle;whiteSpace=wrap;rounded=0;fontColor=#000000;fontSize=22;" vertex="1" parent="1">
          <mxGeometry x="250" y="715" width="30" height="30" as="geometry" />
        </mxCell>
        <mxCell id="EZOEg4c-I0lGizl6Zp-z-192" value="+" style="text;html=1;strokeColor=none;fillColor=none;align=center;verticalAlign=middle;whiteSpace=wrap;rounded=0;fontColor=#000000;fontSize=22;" vertex="1" parent="1">
          <mxGeometry x="250" y="835" width="30" height="30" as="geometry" />
        </mxCell>
        <mxCell id="EZOEg4c-I0lGizl6Zp-z-197" value="" style="rounded=1;whiteSpace=wrap;html=1;fillColor=#0050ef;fontColor=#ffffff;strokeColor=#001DBC;" vertex="1" parent="1">
          <mxGeometry x="790" y="30" width="120" height="60" as="geometry" />
        </mxCell>
        <mxCell id="EZOEg4c-I0lGizl6Zp-z-198" value="&lt;div style=&quot;font-size: 16px;&quot;&gt;&lt;font style=&quot;font-size: 16px;&quot; color=&quot;#000000&quot;&gt;$$\textrm{Ens}_i$$&lt;/font&gt;&lt;/div&gt;" style="text;html=1;strokeColor=none;fillColor=none;align=center;verticalAlign=middle;whiteSpace=wrap;rounded=0;fontSize=16;" vertex="1" parent="1">
          <mxGeometry x="820" y="45" width="60" height="30" as="geometry" />
        </mxCell>
        <mxCell id="EZOEg4c-I0lGizl6Zp-z-199" value="" style="rounded=1;whiteSpace=wrap;html=1;fillColor=#0050ef;fontColor=#ffffff;strokeColor=#001DBC;" vertex="1" parent="1">
          <mxGeometry x="790" y="130" width="120" height="60" as="geometry" />
        </mxCell>
        <mxCell id="EZOEg4c-I0lGizl6Zp-z-200" value="&lt;div style=&quot;font-size: 16px;&quot;&gt;&lt;font style=&quot;font-size: 16px;&quot; color=&quot;#000000&quot;&gt;$$\textrm{WIS(Ens}_i)$$&lt;/font&gt;&lt;/div&gt;" style="text;html=1;strokeColor=none;fillColor=none;align=center;verticalAlign=middle;whiteSpace=wrap;rounded=0;fontSize=16;" vertex="1" parent="1">
          <mxGeometry x="820" y="145" width="60" height="30" as="geometry" />
        </mxCell>
        <mxCell id="EZOEg4c-I0lGizl6Zp-z-201" value="&lt;div&gt;$$\textrm{ensembles over entire time period}$$&lt;/div&gt;" style="text;html=1;strokeColor=none;fillColor=none;align=center;verticalAlign=middle;whiteSpace=wrap;rounded=0;fontColor=#000000;" vertex="1" parent="1">
          <mxGeometry x="717" y="732" width="210" height="65" as="geometry" />
        </mxCell>
        <mxCell id="EZOEg4c-I0lGizl6Zp-z-202" value="&amp;nbsp; $$\textrm{models in fixed sets might}$$" style="text;html=1;strokeColor=none;fillColor=none;align=center;verticalAlign=middle;whiteSpace=wrap;rounded=0;fontColor=#000000;" vertex="1" parent="1">
          <mxGeometry x="750" y="802.5" width="140" height="60" as="geometry" />
        </mxCell>
        <mxCell id="EZOEg4c-I0lGizl6Zp-z-203" value="&lt;div&gt;$$\textrm{should impose e.g. 70%}$$&lt;/div&gt;" style="text;html=1;strokeColor=none;fillColor=none;align=center;verticalAlign=middle;whiteSpace=wrap;rounded=0;fontColor=#000000;" vertex="1" parent="1">
          <mxGeometry x="750" y="865" width="140" height="60" as="geometry" />
        </mxCell>
        <mxCell id="EZOEg4c-I0lGizl6Zp-z-205" value="$$\textrm{is shorthand for}$$" style="text;html=1;strokeColor=none;fillColor=none;align=center;verticalAlign=middle;whiteSpace=wrap;rounded=0;fontColor=#000000;" vertex="1" parent="1">
          <mxGeometry x="680" y="95" width="340" height="30" as="geometry" />
        </mxCell>
        <mxCell id="EZOEg4c-I0lGizl6Zp-z-206" value="&lt;div&gt;$$\textrm{availability for each model}$$&lt;/div&gt;" style="text;html=1;strokeColor=none;fillColor=none;align=center;verticalAlign=middle;whiteSpace=wrap;rounded=0;fontColor=#000000;" vertex="1" parent="1">
          <mxGeometry x="750" y="890" width="140" height="60" as="geometry" />
        </mxCell>
        <mxCell id="EZOEg4c-I0lGizl6Zp-z-211" value="$$\textrm{time point}\ t.$$" style="text;html=1;strokeColor=none;fillColor=none;align=center;verticalAlign=middle;whiteSpace=wrap;rounded=0;fontColor=#000000;" vertex="1" parent="1">
          <mxGeometry x="572" y="243" width="140" height="60" as="geometry" />
        </mxCell>
        <mxCell id="EZOEg4c-I0lGizl6Zp-z-216" value="" style="rounded=1;whiteSpace=wrap;html=1;fillColor=#0050ef;fontColor=#ffffff;strokeColor=#001DBC;" vertex="1" parent="1">
          <mxGeometry x="367" y="565" width="120" height="50" as="geometry" />
        </mxCell>
        <mxCell id="EZOEg4c-I0lGizl6Zp-z-217" value="&lt;div style=&quot;font-size: 16px;&quot;&gt;&lt;font style=&quot;font-size: 16px;&quot;&gt;$$\textrm{HubEns}$$&lt;/font&gt;&lt;/div&gt;" style="text;html=1;strokeColor=none;fillColor=none;align=center;verticalAlign=middle;whiteSpace=wrap;rounded=0;fontSize=16;fontColor=#000000;" vertex="1" parent="1">
          <mxGeometry x="397" y="575" width="60" height="30" as="geometry" />
        </mxCell>
      </root>
    </mxGraphModel>
  </diagram>
</mxfile>
